<svg viewBox="0 0 385.96 386" xmlns="http://www.w3.org/2000/svg"><path d="m192.8 0c59.2 0 112.1 26.7 147.5 68.6h-147.5c-68.6 0-124.3 55.7-124.3 124.4s55.6 124.4 124.3 124.4c34.6 0 65.8-14.1 88.3-36.9h-88.3c-48 0-86.8-38.9-86.8-86.9s38.9-86.9 86.8-86.9h172.5c3.8 7.6 10.6 23.8 15.4 41.7-.9-.3-1.9-.4-2.8-.4h-81.6c-5.7 0-12.1 1.2-17 4.5-1.7 1-4.9 4.5-6.2 8.2-2.5 5.6-2.4 20.9-1.7 25.4.5 3.4 1.5 7 3.8 9.8 3.9 5.1 10.9 7.6 21.2 7.6h65c1.1 0 2.2.8 2.2 2.1v6.7c0 .5-.5 2.1-2.2 2.1h-90.4v12.7c0 2.5.8 4.7 2.4 6.6 2.2 2.5 4.8 3.8 7.8 3.8h79.4c9.3 0 16.5-1.8 21.2-6.1-.3 1.6-.5 2.4-.5 2.4s.1 0 .1-.1c-18.7 87.1-96 152.3-188.5 152.3-106.6 0-192.9-86.4-192.9-193s86.3-193 192.8-193zm-24.6 181.5c-1 0-2.1-.9-2.1-2.5v-4.9c0-1.7.9-2.5 2.4-2.5h.1c3.6 0 90.1-.4 91.3-.4h.1v-12.5c0-3.4-1.3-6.2-3.8-8.4-2-1.5-4.1-2.2-6.3-2.2h-81.6c-5.7 0-12.1 1.2-17 4.5-1.7 1-4.9 4.5-6.2 8.2-2.5 5.6-2.4 20.9-1.7 25.4.5 3.4 1.5 7 3.8 9.8 3.9 5.1 10.9 7.6 21.2 7.6h65c1.1 0 2.2.8 2.2 2.1v6.7c0 .5-.5 2.1-2.2 2.1h-90.4v12.7c0 2.5.8 4.7 2.4 6.6 2.2 2.5 4.8 3.8 7.8 3.8h79.4c17.4 0 27.4-6.2 27.4-23.8v-9.2c0-5-.9-9.2-2.6-12.7-4.5-8.8-13.8-10.2-23.4-10.7h-1.4m63.6.3c-1 0-2.1-.9-2.1-2.5v-4.9c0-1.7.9-2.5 2.4-2.5h.1c3.2 0 73.3-.3 88.4-.4h.2c.6 5.1.9 10.1.7 14.8 0 2.3 0 4.6-.1 6.8-.2-.3-.3-.7-.5-1-4.5-8.8-13.8-10.2-23.4-10.7h-1.4" fill="#ffa42c" fill-rule="evenodd"/></svg>